# xmcd CD database file
#
# Track frame offsets:
#	150
#	23272
#	39296
#	67035
#	88771
#	109550
#	127071
#	141742
#
# Disc length: 2148 seconds
#
# Revision: 0
# Processed by: cddbd v1.5.1PL0 Copyright (c) Steve Scherf et al.
# Submitted via: CDex 1.50
#
DISCID=6a086208
DTITLE=Kwyjibo - Kwyjibo
DYEAR=2002
DGENRE=Jazz
TTITLE0=jungle
TTITLE1=400 gonos
TTITLE2=traumatisme ukrainien
TTITLE3=scène de chasse en bavière
TTITLE4=khal khach bezef
TTITLE5=perbédé
TTITLE6=la fée khalouchette
TTITLE7=jungle remix
EXTD=YEAR: 2002
EXTT0=
EXTT1=
EXTT2=
EXTT3=
EXTT4=
EXTT5=
EXTT6=
EXTT7=
PLAYORDER=
